# xmcd
#
# Track frame offsets:
#	150
#	14969
#	29505
#	41633
#	52720
#	64665
#	76497
#	86406
#	98507
#	114306
#	132220
#	143880
#	156665
#	169512
#	185817
#	208753
#	232135
#	255953
#	270352
#	289567
#
# Disc length: 4048 seconds
#
# Revision: 0
# Processed by: cddbd v1.5.2PL0 Copyright (c) Steve Scherf et al.
# Submitted via: EasyCDDAExtractor 16.0.6.1
#
DISCID=150fce14
DTITLE=Κόκοτας Σταμάτης - Μ' ένα όνειρο τρελλό, 1972-90, Σ. Κόκοτας 2
DYEAR=2003
DGENRE=Ελαφρολαϊκή
TTITLE0=Το θέμα είναι να τη βρω
TTITLE1=Μιά παρένθεση και μόνο
TTITLE2=Σ' αγάπησα μιά φορά
TTITLE3=Η ιστορία του μπεκρή
TTITLE4=Σ' ευχαριστώ
TTITLE5=Νά 'χα τα χρόνια σου
TTITLE6=Άσ' τους να λένε
TTITLE7=Όσο υπάρχουν αγάπες
TTITLE8=Γιέ μου, γιέ μου
TTITLE9=Πέρσα
TTITLE10=Όσα 'γίναν
TTITLE11=Από Αύγουστο σε Μάη
TTITLE12=Εφτά τραγούδια θα σού πω
TTITLE13=Το φεγγάρι κάνει βόλτα
TTITLE14=Κι αν θα μού φύγεις
TTITLE15=Δάκρυσαν τα σεντόνια μου
TTITLE16=Με παρέσυρε εκείνη
TTITLE17=Κρασί κι αγάπη κέρασα
TTITLE18=Έλα να σε ταξιδέψω
TTITLE19=Αγάπη μου που δεν παλιώνεις
EXTD=
EXTT0=
EXTT1=
EXTT2=
EXTT3=
EXTT4=
EXTT5=
EXTT6=
EXTT7=
EXTT8=
EXTT9=
EXTT10=
EXTT11=
EXTT12=
EXTT13=
EXTT14=
EXTT15=
EXTT16=
EXTT17=
EXTT18=
EXTT19=
PLAYORDER=
